<?xml version="1.0" encoding="UTF-8"?>
<svg id="a" viewBox="0 0 1000 1000" xmlns="http://www.w3.org/2000/svg">
    <defs>
        <style>.b{fill:#99334d;}</style>
    </defs>
    <path class="b"
        d="M209.37646484,521.734375c73.56787109-29.18408203,104.88037109-40.73632812,134.97607422-56.84814453,23.10449219-12.46435547,30.09667969-20.06445312,30.09667969-30.09619141,0-6.68798828-4.56054688-11.85595703-13.984375-11.85595703-13.37597656,0-24.92773438,8.51171875-31.3125,27.05566406h-108.52783203c18.54394531-53.80810547,72.35205078-87.24804688,153.52001953-87.55175781,75.08886719,0,115.82519531,25.53564453,115.82519531,60.79980469,0,28.57617188-12.16015625,45.60009766-70.22460938,71.44042969-21.28027344,9.42333984-42.25585938,18.54345703-70.22460938,28.57568359l118.56054688-1.51953125-12.76757812,59.58398438H196.60839844l12.76806641-59.58398438Z" />
    <path class="b"
        d="M517.02246094,368.51757812h107.92089844l-16.41601562,74.17626953,78.43164062-74.17626953h116.43261719l-96.9765625,89.68066406,52.89648438,123.12011719h-120.08007812l-21.28027344-65.05664062-29.79199219,23.71191406-8.51269531,41.34472656h-107.91992188l45.29589844-212.80078125Z" />
</svg>